<mxfile host="app.diagrams.net" agent="Mozilla/5.0 (Windows NT 10.0; Win64; x64) AppleWebKit/537.36 (KHTML, like Gecko) Chrome/141.0.0.0 Safari/537.36 Edg/141.0.0.0" version="28.2.5">
  <diagram name="Página-1" id="cHezNNwbJ-LSzSQR7eVQ">
    <mxGraphModel dx="1418" dy="786" grid="1" gridSize="10" guides="1" tooltips="1" connect="1" arrows="1" fold="1" page="1" pageScale="1" pageWidth="827" pageHeight="1169" math="0" shadow="0">
      <root>
        <mxCell id="0" />
        <mxCell id="1" parent="0" />
        <mxCell id="mZmdodHB2bLZihZyyemv-4" value="" style="edgeStyle=orthogonalEdgeStyle;rounded=0;orthogonalLoop=1;jettySize=auto;html=1;" edge="1" parent="1" source="mZmdodHB2bLZihZyyemv-1" target="mZmdodHB2bLZihZyyemv-2">
          <mxGeometry relative="1" as="geometry" />
        </mxCell>
        <mxCell id="mZmdodHB2bLZihZyyemv-1" value="inicio" style="ellipse;whiteSpace=wrap;html=1;" vertex="1" parent="1">
          <mxGeometry x="130" y="120" width="120" height="80" as="geometry" />
        </mxCell>
        <mxCell id="mZmdodHB2bLZihZyyemv-9" value="" style="edgeStyle=orthogonalEdgeStyle;rounded=0;orthogonalLoop=1;jettySize=auto;html=1;" edge="1" parent="1" source="mZmdodHB2bLZihZyyemv-2" target="mZmdodHB2bLZihZyyemv-8">
          <mxGeometry relative="1" as="geometry" />
        </mxCell>
        <mxCell id="mZmdodHB2bLZihZyyemv-2" value="escrever&quot;pedir numero&quot;" style="shape=parallelogram;perimeter=parallelogramPerimeter;whiteSpace=wrap;html=1;fixedSize=1;" vertex="1" parent="1">
          <mxGeometry x="75" y="220" width="230" height="70" as="geometry" />
        </mxCell>
        <mxCell id="mZmdodHB2bLZihZyyemv-11" value="" style="edgeStyle=orthogonalEdgeStyle;rounded=0;orthogonalLoop=1;jettySize=auto;html=1;" edge="1" parent="1" source="mZmdodHB2bLZihZyyemv-8" target="mZmdodHB2bLZihZyyemv-10">
          <mxGeometry relative="1" as="geometry" />
        </mxCell>
        <mxCell id="mZmdodHB2bLZihZyyemv-25" value="case" style="edgeStyle=orthogonalEdgeStyle;rounded=0;orthogonalLoop=1;jettySize=auto;html=1;" edge="1" parent="1" source="mZmdodHB2bLZihZyyemv-8" target="mZmdodHB2bLZihZyyemv-24">
          <mxGeometry relative="1" as="geometry" />
        </mxCell>
        <mxCell id="mZmdodHB2bLZihZyyemv-8" value="escrever&quot;num1&quot;" style="shape=parallelogram;perimeter=parallelogramPerimeter;whiteSpace=wrap;html=1;fixedSize=1;" vertex="1" parent="1">
          <mxGeometry x="385" y="190" width="230" height="70" as="geometry" />
        </mxCell>
        <mxCell id="mZmdodHB2bLZihZyyemv-13" value="" style="edgeStyle=orthogonalEdgeStyle;rounded=0;orthogonalLoop=1;jettySize=auto;html=1;" edge="1" parent="1" source="mZmdodHB2bLZihZyyemv-10" target="mZmdodHB2bLZihZyyemv-12">
          <mxGeometry relative="1" as="geometry" />
        </mxCell>
        <mxCell id="mZmdodHB2bLZihZyyemv-46" value="case" style="edgeStyle=orthogonalEdgeStyle;rounded=0;orthogonalLoop=1;jettySize=auto;html=1;" edge="1" parent="1" source="mZmdodHB2bLZihZyyemv-10" target="mZmdodHB2bLZihZyyemv-45">
          <mxGeometry relative="1" as="geometry" />
        </mxCell>
        <mxCell id="mZmdodHB2bLZihZyyemv-10" value="escrever&quot;num2&quot;" style="shape=parallelogram;perimeter=parallelogramPerimeter;whiteSpace=wrap;html=1;fixedSize=1;" vertex="1" parent="1">
          <mxGeometry x="385" y="300" width="230" height="70" as="geometry" />
        </mxCell>
        <mxCell id="mZmdodHB2bLZihZyyemv-15" value="" style="edgeStyle=orthogonalEdgeStyle;rounded=0;orthogonalLoop=1;jettySize=auto;html=1;" edge="1" parent="1" source="mZmdodHB2bLZihZyyemv-12" target="mZmdodHB2bLZihZyyemv-14">
          <mxGeometry relative="1" as="geometry" />
        </mxCell>
        <mxCell id="mZmdodHB2bLZihZyyemv-44" value="case" style="edgeStyle=orthogonalEdgeStyle;rounded=0;orthogonalLoop=1;jettySize=auto;html=1;" edge="1" parent="1" source="mZmdodHB2bLZihZyyemv-12" target="mZmdodHB2bLZihZyyemv-27">
          <mxGeometry relative="1" as="geometry" />
        </mxCell>
        <mxCell id="mZmdodHB2bLZihZyyemv-12" value="escrever&quot;num3&quot;" style="shape=parallelogram;perimeter=parallelogramPerimeter;whiteSpace=wrap;html=1;fixedSize=1;" vertex="1" parent="1">
          <mxGeometry x="385" y="397.5" width="230" height="70" as="geometry" />
        </mxCell>
        <mxCell id="mZmdodHB2bLZihZyyemv-17" value="" style="edgeStyle=orthogonalEdgeStyle;rounded=0;orthogonalLoop=1;jettySize=auto;html=1;" edge="1" parent="1" source="mZmdodHB2bLZihZyyemv-14" target="mZmdodHB2bLZihZyyemv-16">
          <mxGeometry relative="1" as="geometry" />
        </mxCell>
        <mxCell id="mZmdodHB2bLZihZyyemv-42" value="" style="edgeStyle=orthogonalEdgeStyle;rounded=0;orthogonalLoop=1;jettySize=auto;html=1;" edge="1" parent="1" source="mZmdodHB2bLZihZyyemv-14" target="mZmdodHB2bLZihZyyemv-28">
          <mxGeometry relative="1" as="geometry" />
        </mxCell>
        <mxCell id="mZmdodHB2bLZihZyyemv-49" value="case" style="edgeLabel;html=1;align=center;verticalAlign=middle;resizable=0;points=[];" vertex="1" connectable="0" parent="mZmdodHB2bLZihZyyemv-42">
          <mxGeometry x="0.1704" y="3" relative="1" as="geometry">
            <mxPoint x="1" y="1" as="offset" />
          </mxGeometry>
        </mxCell>
        <mxCell id="mZmdodHB2bLZihZyyemv-14" value="escrever&quot;num4&quot;" style="shape=parallelogram;perimeter=parallelogramPerimeter;whiteSpace=wrap;html=1;fixedSize=1;" vertex="1" parent="1">
          <mxGeometry x="385" y="520" width="230" height="70" as="geometry" />
        </mxCell>
        <mxCell id="mZmdodHB2bLZihZyyemv-19" value="" style="edgeStyle=orthogonalEdgeStyle;rounded=0;orthogonalLoop=1;jettySize=auto;html=1;" edge="1" parent="1" source="mZmdodHB2bLZihZyyemv-16" target="mZmdodHB2bLZihZyyemv-18">
          <mxGeometry relative="1" as="geometry" />
        </mxCell>
        <mxCell id="mZmdodHB2bLZihZyyemv-41" value="" style="edgeStyle=orthogonalEdgeStyle;rounded=0;orthogonalLoop=1;jettySize=auto;html=1;" edge="1" parent="1" source="mZmdodHB2bLZihZyyemv-16" target="mZmdodHB2bLZihZyyemv-29">
          <mxGeometry relative="1" as="geometry" />
        </mxCell>
        <mxCell id="mZmdodHB2bLZihZyyemv-48" value="case" style="edgeLabel;html=1;align=center;verticalAlign=middle;resizable=0;points=[];" vertex="1" connectable="0" parent="mZmdodHB2bLZihZyyemv-41">
          <mxGeometry x="-0.0261" y="1" relative="1" as="geometry">
            <mxPoint as="offset" />
          </mxGeometry>
        </mxCell>
        <mxCell id="mZmdodHB2bLZihZyyemv-16" value="escrever&quot;num5&quot;" style="shape=parallelogram;perimeter=parallelogramPerimeter;whiteSpace=wrap;html=1;fixedSize=1;" vertex="1" parent="1">
          <mxGeometry x="385" y="620" width="230" height="70" as="geometry" />
        </mxCell>
        <mxCell id="mZmdodHB2bLZihZyyemv-21" value="" style="edgeStyle=orthogonalEdgeStyle;rounded=0;orthogonalLoop=1;jettySize=auto;html=1;" edge="1" parent="1" source="mZmdodHB2bLZihZyyemv-18" target="mZmdodHB2bLZihZyyemv-20">
          <mxGeometry relative="1" as="geometry" />
        </mxCell>
        <mxCell id="mZmdodHB2bLZihZyyemv-35" value="" style="edgeStyle=orthogonalEdgeStyle;rounded=0;orthogonalLoop=1;jettySize=auto;html=1;" edge="1" parent="1" source="mZmdodHB2bLZihZyyemv-18" target="mZmdodHB2bLZihZyyemv-30">
          <mxGeometry relative="1" as="geometry" />
        </mxCell>
        <mxCell id="mZmdodHB2bLZihZyyemv-47" value="case" style="edgeLabel;html=1;align=center;verticalAlign=middle;resizable=0;points=[];" vertex="1" connectable="0" parent="mZmdodHB2bLZihZyyemv-35">
          <mxGeometry x="-0.1652" y="-3" relative="1" as="geometry">
            <mxPoint as="offset" />
          </mxGeometry>
        </mxCell>
        <mxCell id="mZmdodHB2bLZihZyyemv-18" value="escrever&quot;num6&quot;" style="shape=parallelogram;perimeter=parallelogramPerimeter;whiteSpace=wrap;html=1;fixedSize=1;" vertex="1" parent="1">
          <mxGeometry x="385" y="730" width="230" height="70" as="geometry" />
        </mxCell>
        <mxCell id="mZmdodHB2bLZihZyyemv-23" value="" style="edgeStyle=orthogonalEdgeStyle;rounded=0;orthogonalLoop=1;jettySize=auto;html=1;" edge="1" parent="1" source="mZmdodHB2bLZihZyyemv-20" target="mZmdodHB2bLZihZyyemv-22">
          <mxGeometry relative="1" as="geometry" />
        </mxCell>
        <mxCell id="mZmdodHB2bLZihZyyemv-34" value="case" style="edgeStyle=orthogonalEdgeStyle;rounded=0;orthogonalLoop=1;jettySize=auto;html=1;" edge="1" parent="1" source="mZmdodHB2bLZihZyyemv-20" target="mZmdodHB2bLZihZyyemv-31">
          <mxGeometry relative="1" as="geometry" />
        </mxCell>
        <mxCell id="mZmdodHB2bLZihZyyemv-20" value="escrever&quot;num7&quot;" style="shape=parallelogram;perimeter=parallelogramPerimeter;whiteSpace=wrap;html=1;fixedSize=1;" vertex="1" parent="1">
          <mxGeometry x="385" y="840" width="230" height="70" as="geometry" />
        </mxCell>
        <mxCell id="mZmdodHB2bLZihZyyemv-33" value="case" style="edgeStyle=orthogonalEdgeStyle;rounded=0;orthogonalLoop=1;jettySize=auto;html=1;" edge="1" parent="1" source="mZmdodHB2bLZihZyyemv-22" target="mZmdodHB2bLZihZyyemv-32">
          <mxGeometry relative="1" as="geometry" />
        </mxCell>
        <mxCell id="mZmdodHB2bLZihZyyemv-22" value="escrever&quot;num8&quot;" style="shape=parallelogram;perimeter=parallelogramPerimeter;whiteSpace=wrap;html=1;fixedSize=1;" vertex="1" parent="1">
          <mxGeometry x="385" y="950" width="230" height="70" as="geometry" />
        </mxCell>
        <mxCell id="mZmdodHB2bLZihZyyemv-24" value="num==batata" style="rhombus;whiteSpace=wrap;html=1;" vertex="1" parent="1">
          <mxGeometry x="740" y="172.5" width="130" height="105" as="geometry" />
        </mxCell>
        <mxCell id="mZmdodHB2bLZihZyyemv-27" value="num3==palhaço" style="rhombus;whiteSpace=wrap;html=1;" vertex="1" parent="1">
          <mxGeometry x="660" y="380" width="130" height="105" as="geometry" />
        </mxCell>
        <mxCell id="mZmdodHB2bLZihZyyemv-28" value="num==folha" style="rhombus;whiteSpace=wrap;html=1;" vertex="1" parent="1">
          <mxGeometry x="660" y="490" width="130" height="105" as="geometry" />
        </mxCell>
        <mxCell id="mZmdodHB2bLZihZyyemv-29" value="num5==bolo" style="rhombus;whiteSpace=wrap;html=1;" vertex="1" parent="1">
          <mxGeometry x="660" y="600" width="130" height="105" as="geometry" />
        </mxCell>
        <mxCell id="mZmdodHB2bLZihZyyemv-30" value="num6==balão" style="rhombus;whiteSpace=wrap;html=1;" vertex="1" parent="1">
          <mxGeometry x="660" y="710" width="130" height="105" as="geometry" />
        </mxCell>
        <mxCell id="mZmdodHB2bLZihZyyemv-31" value="num7==tenis" style="rhombus;whiteSpace=wrap;html=1;" vertex="1" parent="1">
          <mxGeometry x="660" y="822.5" width="130" height="105" as="geometry" />
        </mxCell>
        <mxCell id="mZmdodHB2bLZihZyyemv-32" value="num8==batata" style="rhombus;whiteSpace=wrap;html=1;" vertex="1" parent="1">
          <mxGeometry x="660" y="932.5" width="130" height="105" as="geometry" />
        </mxCell>
        <mxCell id="mZmdodHB2bLZihZyyemv-36" value="fim" style="ellipse;whiteSpace=wrap;html=1;" vertex="1" parent="1">
          <mxGeometry x="1060" y="610" width="80" height="80" as="geometry" />
        </mxCell>
        <mxCell id="mZmdodHB2bLZihZyyemv-45" value="num2==churrasco" style="rhombus;whiteSpace=wrap;html=1;" vertex="1" parent="1">
          <mxGeometry x="670" y="260" width="130" height="105" as="geometry" />
        </mxCell>
      </root>
    </mxGraphModel>
  </diagram>
</mxfile>
